<svg viewBox="0 0 450 700" fill="none" xmlns="http://www.w3.org/2000/svg">
    <path d="M425 62.5H25V687.5H425V62.5Z" fill="#E1E1DF" stroke="#8E8E8E" stroke-width="25" stroke-linecap="round"
        stroke-linejoin="round" />
    <path d="M251 138H199V588H251V138Z" stroke="#6E1329" stroke-width="25" stroke-linecap="round"
        stroke-linejoin="round" />
    <path d="M437.5 137.5L225 200L12.5 137.5V12.5H437.5V137.5Z" fill="#E1E1DF" stroke="#8E8E8E" stroke-width="25"
        stroke-linecap="round" stroke-linejoin="round" />
    <path
        d="M225 62.5C231.904 62.5 237.5 56.9036 237.5 50C237.5 43.0964 231.904 37.5 225 37.5C218.096 37.5 212.5 43.0964 212.5 50C212.5 56.9036 218.096 62.5 225 62.5Z"
        fill="#6E1329" />
    <path
        d="M225 112.5C231.904 112.5 237.5 106.904 237.5 100C237.5 93.0964 231.904 87.5 225 87.5C218.096 87.5 212.5 93.0964 212.5 100C212.5 106.904 218.096 112.5 225 112.5Z"
        fill="#6E1329" />
    <path
        d="M225 162.5C231.904 162.5 237.5 156.904 237.5 150C237.5 143.096 231.904 137.5 225 137.5C218.096 137.5 212.5 143.096 212.5 150C212.5 156.904 218.096 162.5 225 162.5Z"
        fill="#6E1329" />
    <path d="M387.5 575H62.5L25 687.5H425L387.5 575Z" fill="#E1E1DF" stroke="#8E8E8E" stroke-width="25"
        stroke-linecap="round" stroke-linejoin="round" />
</svg>