<svg width="40" height="39" viewBox="0 0 40 39" fill="none" xmlns="http://www.w3.org/2000/svg">
<path d="M31.8151 14.0101C31.8151 7.32286 26.5661 1.90186 20.0912 1.90186C13.6163 1.90186 8.36731 7.32293 8.36731 14.0101C8.36731 17.0341 9.4408 19.799 11.2155 21.921H11.2155L13.7799 26.5695C14.4496 27.8096 14.6983 28.6103 15.8207 28.6103H24.1823C25.3048 28.6103 25.635 27.7671 26.2231 26.5695L28.967 21.921H28.9669C30.7416 19.799 31.8151 17.0341 31.8151 14.0101Z" fill="#FFE46A"/>
<path d="M9.09256 15.4847C9.09256 8.57428 14.301 2.86292 21.0627 1.94748C20.7253 1.91733 20.3868 1.90211 20.0481 1.90186C13.5732 1.90186 8.32422 7.32293 8.32422 14.0101C8.32422 16.2107 8.89315 18.2737 9.88666 20.0519C9.3725 18.6238 9.09256 17.0864 9.09256 15.4847Z" fill="#FFF0B7"/>
<path d="M31.8151 14.036C31.8151 11.6408 31.1415 9.4082 29.9796 7.52881C30.2284 8.51022 30.3542 9.51875 30.3541 10.5312C30.3541 18.4877 22.6503 24.9674 13.0265 25.2299L13.7798 26.5955C14.4496 27.8356 14.6982 28.6363 15.8206 28.6363H24.1823C25.3048 28.6363 25.635 27.7931 26.2231 26.5955L28.967 21.947H28.9668C30.7416 19.825 31.8151 17.06 31.8151 14.036Z" fill="#FFDA00"/>
<path d="M25.0201 16.0877C25.0315 16.0777 25.0427 16.0686 25.0542 16.0576C25.2665 15.8545 25.4413 15.5304 25.295 15.2299C24.6948 13.9977 22.8597 13.6068 21.5226 14.0148C21.4549 14.0355 21.3892 14.0579 21.3255 14.0822C20.5971 13.657 19.6928 13.5548 18.8879 13.8104C18.7926 13.8406 18.6991 13.876 18.6077 13.9166C18.1671 13.6591 17.6516 13.5307 17.1381 13.5803C16.0631 13.6843 15.1291 14.5561 14.944 15.6181L14.8593 15.6705C15.5918 16.8543 17.5199 20.2462 17.6435 21.7058C17.7993 23.5472 17.6436 28.5455 17.642 28.5958L18.5556 28.6247C18.5622 28.4173 18.7145 23.5228 18.5542 21.6287C18.4827 20.7842 17.966 19.4382 17.0183 17.6281C16.5759 16.7832 16.1465 16.0415 15.8865 15.6038C16.0663 15.0214 16.6185 14.549 17.2261 14.4902C17.4111 14.4723 17.5988 14.493 17.7784 14.5458C17.7108 14.6323 17.6516 14.7251 17.6017 14.8229C17.2934 15.4273 17.4222 16.1862 17.9013 16.5882C18.185 16.8263 18.5972 16.9139 18.9773 16.8167C19.3313 16.7262 19.6049 16.4936 19.7279 16.1785C19.8385 15.8953 19.8291 15.5684 19.7 15.2068C19.6252 14.9989 19.5214 14.8025 19.3915 14.6238C19.7365 14.5574 20.0925 14.5768 20.4282 14.6804C20.2975 14.8309 20.1976 14.9983 20.1319 15.1798C19.9914 15.5684 20.0535 16.0301 20.294 16.385C20.5012 16.6909 20.8162 16.8727 21.1584 16.884C21.1698 16.8844 21.1813 16.8846 21.1926 16.8846C21.4924 16.8846 21.7769 16.7557 21.9972 16.5192C22.2559 16.2414 22.3876 15.8558 22.3494 15.4875C22.3251 15.2535 22.2418 15.0245 22.1078 14.8121C23.0398 14.6428 23.9515 14.9577 24.3459 15.4357C24.1079 15.8318 23.6191 16.6628 23.1136 17.6283C22.166 19.4384 21.6491 20.7845 21.5777 21.6289C21.4174 23.523 21.5698 28.4174 21.5762 28.6248L22.4898 28.596C22.4882 28.5457 22.3326 23.5477 22.4884 21.706C22.5995 20.3919 24.1728 17.513 25.0201 16.0877ZM18.8763 15.8462C18.8551 15.9007 18.7749 15.925 18.7509 15.9312C18.6557 15.9555 18.5479 15.9377 18.4887 15.8881C18.3352 15.7593 18.3018 15.4616 18.4158 15.2382C18.4532 15.1663 18.5006 15.1 18.5567 15.0415C18.6794 15.1807 18.777 15.3405 18.8391 15.5144C18.8897 15.656 18.9033 15.7771 18.8763 15.8462ZM21.3283 15.896C21.3016 15.9245 21.2472 15.9715 21.1882 15.9703C21.1249 15.9683 21.0748 15.9079 21.0505 15.8721C20.9749 15.7604 20.9506 15.6035 20.9914 15.4906C21.0385 15.3603 21.1293 15.2538 21.2354 15.168C21.3534 15.3014 21.4259 15.4448 21.4401 15.5819C21.4511 15.6863 21.4061 15.8125 21.3283 15.896Z" fill="#FAAF63"/>
<path d="M24.5652 30.6743H15.5742C15.0715 30.6743 14.6602 31.0856 14.6602 31.5884V32.1183C14.6602 32.621 15.0715 33.0324 15.5742 33.0324H18.478C17.6122 33.3545 16.698 34.1205 16.698 35.0087V35.3652C17.3929 36.1463 18.0401 37.5042 19.2727 37.5042H20.9401C21.9112 37.5042 22.601 36.4559 23.4413 35.3652V35.0087C23.4413 34.1205 22.5691 33.3545 21.7238 33.0324H24.5652C25.0679 33.0324 25.4792 32.621 25.4792 32.1183V31.5884C25.4792 31.0856 25.0679 30.6743 24.5652 30.6743Z" fill="#6B83A5"/>
<path d="M25.2106 30.6745H14.9287C14.426 30.6745 14.0146 30.2631 14.0146 29.7604V29.2305C14.0146 28.7277 14.426 28.3164 14.9287 28.3164H25.2106C25.7134 28.3164 26.1247 28.7277 26.1247 29.2305V29.7604C26.1247 30.2631 25.7134 30.6745 25.2106 30.6745ZM24.6769 34.4766V33.9467C24.6769 33.4439 24.2656 33.0326 23.7628 33.0326H16.3765C15.8738 33.0326 15.4624 33.4439 15.4624 33.9467V34.4766C15.4624 34.9793 15.8738 35.3906 16.3765 35.3906H23.7628C24.2656 35.3906 24.6769 34.9793 24.6769 34.4766Z" fill="#ABBDDB"/>
</svg>
