<svg viewBox="0 0 43 46" fill="none" xmlns="http://www.w3.org/2000/svg">
    <path d="M21.2515 39.3158V24.1118M23.2445 39.7468L30.7762 42.2681C34.8782 43.6413 36.929 44.3278 38.1937 43.8351C39.292 43.4073 40.1252 42.4881 40.4432 41.3531C40.8095 40.0461 39.9252 38.0726 38.1565 34.1251L26.8 8.77954C25.0702 4.91929 24.2055 2.98916 23.0007 2.39111C21.954 1.87151 20.725 1.86954 19.6767 2.38576C18.47 2.97996 17.599 4.90731 15.857 8.76196L4.39131 34.1323C2.60861 38.0768 1.71726 40.0493 2.07971 41.3576C2.39449 42.4938 3.22529 43.4158 4.32269 43.8468C5.58636 44.3433 7.64056 43.6613 11.749 42.2978L19.4497 39.7418C20.154 39.5081 20.5062 39.3911 20.8665 39.3451C21.186 39.3041 21.5095 39.3046 21.829 39.3463C22.189 39.3933 22.541 39.5111 23.2445 39.7468Z" 
        stroke="current" 
        stroke-width="3"
        stroke-linecap="round" 
        stroke-linejoin="round"
    />
</svg>
